# xmcd CD database file
#
# Track frame offsets:
#	187
#	18855
#	44417
#	78022
#	98250
#	129627
#	164010
#	186500
#
# Disc length: 2661 seconds
#
# Revision: 0
# Processed by: cddbd v1.5.1PL0 Copyright (c) Steve Scherf et al.
# Submitted via: CDex 1.50
#
DISCID=5b0a6308
DTITLE=Evans Bradshaw - Look out for
DYEAR=1958
DGENRE=Jazz
TTITLE0=Georgia on my mind
TTITLE1=Hallelujah!
TTITLE2=The Prophet
TTITLE3=Love for sale
TTITLE4=Coolin' the Blues
TTITLE5=Blueinet
TTITLE6=Angel Eyes
TTITLE7=Old Devil Moon
EXTD=YEAR: 1958
EXTT0=
EXTT1=
EXTT2=
EXTT3=
EXTT4=
EXTT5=
EXTT6=
EXTT7=
PLAYORDER=
